<?xml version="1.0" encoding="iso-8859-1"?>
<!-- Generator: Adobe Illustrator 16.0.0, SVG Export Plug-In . SVG Version: 6.00 Build 0)  -->
<!DOCTYPE svg PUBLIC "-//W3C//DTD SVG 1.1//EN" "http://www.w3.org/Graphics/SVG/1.1/DTD/svg11.dtd">
<svg version="1.1" id="Capa_1" xmlns="http://www.w3.org/2000/svg" xmlns:xlink="http://www.w3.org/1999/xlink" x="0px" y="0px"
	 width="384.004px" height="384.004px" viewBox="0 0 384.004 384.004" style="enable-background:new 0 0 384.004 384.004;"
	 xml:space="preserve">
<g>
	<g>
		<path d="M354.414,215.357l-47.368,91.964l-2.855,5.541l-5.541-2.855l-144.6-74.477l160.023,108.71L382.8,243.057
			c2.156-3.179,1.34-7.502-1.839-9.67L354.414,215.357z"/>
		<polygon points="349.212,211.831 350.65,209.03 352.087,206.248 360.697,189.542 330.373,173.923 325.477,188.163 324.43,191.22 
			323.382,194.282 299.684,263.236 297.662,269.137 291.768,267.108 110.433,204.816 107.379,203.77 104.316,202.71 
			103.181,202.326 104.222,202.855 107.017,204.293 111.349,206.527 301.499,304.466 		"/>
		<polygon points="111.005,198.417 114.062,199.471 293.79,261.215 318.031,190.647 319.083,187.59 320.131,184.537 
			324.771,171.037 325.794,168.057 326.817,165.076 335.792,138.95 296.554,125.469 292.803,147.561 292.255,150.784 
			291.713,154.009 290.001,164.065 289.429,167.444 288.857,170.824 281.404,214.729 280.357,220.88 274.207,219.832 
			118.208,193.357 114.835,192.784 111.456,192.212 84.094,187.566 80.87,187.018 77.649,186.476 74.86,186.001 77.436,186.887 
			80.417,187.907 83.397,188.93 107.952,197.363 		"/>
		<polygon points="83.872,181.206 87.093,181.748 115.304,186.537 118.684,187.109 122.063,187.685 275.254,213.694 283.182,166.97 
			283.754,163.59 284.327,160.217 285.898,151.013 286.446,147.786 286.982,144.562 290.575,123.417 291.11,120.299 
			291.634,117.188 296.882,86.236 253.035,78.789 253.035,103.926 253.035,107.217 253.035,110.517 253.035,127.076 
			253.035,130.581 253.041,134.091 253.041,138.956 253.041,142.729 253.041,146.495 253.041,169.04 253.041,175.275 
			246.805,175.275 130.49,175.281 126.724,175.281 122.952,175.281 90.424,175.281 86.919,175.281 83.409,175.281 62.353,175.281 
			59.056,175.281 55.761,175.281 48.99,175.281 55.387,176.368 58.499,176.898 61.616,177.428 80.647,180.658 		"/>
		<path d="M61.199,169.046h3.297h22.131h3.504h3.504h33.551h3.772h3.766l112.074-0.006v-26.78v-3.766v-3.766v-3.839v-3.51v-3.504
			v-15.491v-3.297v-3.297V77.736v-3.161v-3.16V39.764L60.401,39.77H48.116H6.959C3.111,39.77,0,42.888,0,46.73l0.006,122.316H26.18
			h3.163h3.161h25.404H61.199z M224.787,147.554h-75.465h-3.766h-3.767h-29.629V134.21h38.69h3.766h3.772h66.393v13.344H224.787z
			 M224.787,111.129h-2.709h-6.802h-3.203h-3.617h-1.93h-5.548H174.07h-3.772h-3.766H123.47h-3.51h-3.504h-4.302V97.784h11.174
			h3.504h3.511h45.258h3.766h3.185h4.329h2.488h3.06h3.742h19.802h8.816v3.03V111.129z M224.787,61.259v6.415v3.16v3.163V74.6
			H167.68h-9.597h-6.933h-2.67h-4.135h-5.581h-3.504h-23.114V62.117v-0.858h7.091h9.59h20.879h18.627h18.636H224.787z
			 M34.924,154.788h-3.164h-3.167h-6.579c0-16.879,5.34-31.913,13.67-41.741c1.209-1.428,2.494-2.713,3.827-3.909
			c1.178-1.06,2.396-2.019,3.654-2.88c2.152-1.471,4.415-2.643,6.771-3.486c-2.024-0.749-3.939-1.696-5.684-2.911
			c-0.987-0.685-1.897-1.473-2.777-2.29c-0.971-0.91-1.839-1.915-2.655-2.968c-3.325-4.272-5.383-9.563-5.383-15.387
			c0-8.887,4.627-16.66,11.572-21.145c1.111-0.716,2.265-1.352,3.48-1.891c1.072-0.472,2.208-0.798,3.355-1.114
			c2.17-0.612,4.415-1.042,6.783-1.042c13.911,0,25.19,11.28,25.19,25.191c0,10.842-6.884,20.003-16.492,23.556
			c3.955,1.416,7.651,3.748,10.988,6.865c0.834,0.786,1.644,1.626,2.439,2.506c0.804,0.898,1.577,1.833,2.323,2.825
			c7.085,9.329,11.648,22.615,12.087,37.507c0.024,0.773,0.079,1.534,0.079,2.319h-1.272H69.398h-3.297h-3.3H34.924V154.788z"/>
	</g>
</g>
<g>
</g>
<g>
</g>
<g>
</g>
<g>
</g>
<g>
</g>
<g>
</g>
<g>
</g>
<g>
</g>
<g>
</g>
<g>
</g>
<g>
</g>
<g>
</g>
<g>
</g>
<g>
</g>
<g>
</g>
</svg>
